<svg display="none" width="0" height="0" version="1.1" xmlns="http://www.w3.org/2000/svg" xmlns:xlink="http://www.w3.org/1999/xlink">
<defs>
<symbol id="icon--arrow-down" viewBox="0 0 1024 1024">
	<title>arrow-down</title>
	<path class="path1" d="M891.802 312.781c13.926-13.722 36.301-13.722 50.125 0s13.875 35.891 0 49.613l-404.89 400.896c-13.824 13.722-36.198 13.722-50.125 0l-404.89-400.896c-13.824-13.722-13.824-35.891 0-49.613 13.875-13.722 36.301-13.722 50.125 0l379.853 365.619 379.802-365.619z"></path>
</symbol>
<symbol id="icon--heart" viewBox="0 0 1024 1024">
	<title>heart</title>
	<path class="path1" d="M880.128 212.736c-85.606-78.541-224.41-78.541-310.016 0l-58.112 53.35-58.163-53.35c-85.606-78.541-224.358-78.541-309.965 0-96.307 88.422-96.307 231.424 0 319.795l368.128 337.869 368.128-337.869c96.256-88.371 96.256-231.424 0-319.795z"></path>
</symbol>
<symbol id="icon--home" viewBox="0 0 1024 1024">
	<title>home</title>
	<path class="path1" d="M956.006 563.2h-85.606v307.2c0 22.784-9.933 51.2-51.2 51.2h-204.8v-307.2h-204.8v307.2h-204.8c-41.267 0-51.2-28.416-51.2-51.2v-307.2h-85.606c-30.618 0-24.064-16.589-3.072-38.298l410.829-411.238c9.984-10.342 23.091-15.462 36.25-15.974 13.158 0.512 26.266 5.581 36.25 15.974l410.778 411.187c21.043 21.76 27.597 38.349-3.021 38.349z"></path>
</symbol>
<symbol id="icon--paper-plane" viewBox="0 0 1024 1024">
	<title>paper-plane</title>
	<path class="path1" d="M954.368 134.861c-17.613 6.195-886.835 312.525-903.987 318.566-14.541 5.12-17.766 17.664-0.512 24.525 20.531 8.243 194.355 77.875 194.355 77.875v0l115.2 46.131c0 0 554.906-407.45 562.381-412.979 7.578-5.53 16.282 4.864 10.803 10.803-5.478 5.99-402.995 435.866-402.995 435.866v0.102l-23.142 25.754 30.669 16.486c0 0 238.080 128.205 255.078 137.318 14.899 7.987 34.202 1.382 38.502-17.101 5.069-21.811 145.664-627.763 148.787-641.28 4.045-17.562-7.578-28.262-25.139-22.067zM358.4 878.694c0 12.595 7.117 16.128 16.947 7.219 12.851-11.725 145.92-131.123 145.92-131.123l-162.867-84.173v208.077z"></path>
</symbol>
<symbol id="icon--cool" viewBox="0 0 1024 1024">
	<title>cool</title>
	<path class="path1" d="M512 1024c282.77 0 512-229.23 512-512s-229.23-512-512-512-512 229.23-512 512 229.23 512 512 512zM512 96c229.75 0 416 186.25 416 416s-186.25 416-416 416-416-186.25-416-416 186.25-416 416-416zM800 256c17.6 0 32 14.4 32 32v96c0 35.2-28.8 64-64 64h-128c-35.2 0-64-28.8-64-64h-128c0 35.2-28.8 64-64 64h-128c-35.2 0-64-28.8-64-64v-96c0-17.6 14.4-32 32-32h192c17.6 0 32 14.4 32 32v32h128v-32c0-17.6 14.4-32 32-32h192zM512 768c93.208 0 174.772-49.818 219.546-124.278l54.88 32.934c-55.966 93.070-157.916 155.344-274.426 155.344-48.458 0-94.384-10.796-135.54-30.082l33.162-55.278c31.354 13.714 65.964 21.36 102.378 21.36z"></path>
</symbol>
<symbol id="icon--google-plus" viewBox="0 0 1024 1024">
	<title>google-plus</title>
	<path class="path1" d="M559.066 64c0 0-200.956 0-267.94 0-120.12 0-233.17 91.006-233.17 196.422 0 107.726 81.882 194.666 204.088 194.666 8.498 0 16.756-0.17 24.842-0.752-7.93 15.186-13.602 32.288-13.602 50.042 0 29.938 16.104 54.21 36.468 74.024-15.386 0-30.242 0.448-46.452 0.448-148.782-0.002-263.3 94.758-263.3 193.020 0 96.778 125.542 157.314 274.334 157.314 169.624 0 263.306-96.244 263.306-193.028 0-77.6-22.896-124.072-93.686-174.134-24.216-17.144-70.53-58.836-70.53-83.344 0-28.72 8.196-42.868 51.428-76.646 44.312-34.624 75.672-83.302 75.672-139.916 0-67.406-30.020-133.098-86.372-154.772h84.954l59.96-43.344zM465.48 719.458c2.126 8.972 3.284 18.206 3.284 27.628 0 78.2-50.392 139.31-194.974 139.31-102.842 0-177.116-65.104-177.116-143.3 0-76.642 92.126-140.444 194.964-139.332 24 0.254 46.368 4.116 66.67 10.69 55.826 38.826 95.876 60.762 107.172 105.004zM300.818 427.776c-69.038-2.064-134.636-77.226-146.552-167.86-11.916-90.666 34.37-160.042 103.388-157.99 69.010 2.074 134.638 74.814 146.558 165.458 11.906 90.66-34.39 162.458-103.394 160.392zM832 256v-192h-64v192h-192v64h192v192h64v-192h192v-64z"></path>
</symbol>
<symbol id="icon--facebook" viewBox="0 0 1024 1024">
	<title>facebook</title>
	<path class="path1" d="M672 192c-88.366 0-160 71.634-160 160v96h-128v128h128v448h128v-448h144l32-128h-176v-96c0-17.672 14.326-32 32-32h160v-128h-160z"></path>
</symbol>
<symbol id="icon--twitter" viewBox="0 0 1024 1024">
	<title>twitter</title>
	<path class="path1" d="M1024 194.418c-37.676 16.708-78.164 28.002-120.66 33.080 43.372-26 76.686-67.17 92.372-116.23-40.596 24.078-85.556 41.56-133.41 50.98-38.32-40.83-92.922-66.34-153.346-66.34-116.022 0-210.088 94.058-210.088 210.078 0 16.466 1.858 32.5 5.44 47.878-174.6-8.764-329.402-92.4-433.018-219.506-18.084 31.028-28.446 67.116-28.446 105.618 0 72.888 37.088 137.192 93.46 174.866-34.438-1.092-66.832-10.542-95.154-26.278-0.020 0.876-0.020 1.756-0.020 2.642 0 101.788 72.418 186.696 168.522 206-17.626 4.8-36.188 7.372-55.348 7.372-13.538 0-26.698-1.32-39.528-3.772 26.736 83.46 104.32 144.206 196.252 145.896-71.9 56.35-162.486 89.934-260.916 89.934-16.958 0-33.68-0.994-50.116-2.94 92.972 59.61 203.402 94.394 322.042 94.394 386.422 0 597.736-320.124 597.736-597.744 0-9.108-0.206-18.168-0.61-27.18 41.056-29.62 76.672-66.62 104.836-108.748z"></path>
</symbol>
<symbol id="icon--linkedin" viewBox="0 0 1024 1024">
	<title>linkedin</title>
	<path class="path1" d="M384 384h177.106v90.782h2.532c24.64-44.194 84.958-90.782 174.842-90.782 186.946 0 221.52 116.376 221.52 267.734v308.266h-184.61v-273.278c0-65.184-1.334-149.026-96.028-149.026-96.148 0-110.82 70.986-110.82 144.292v278.012h-184.542v-576z"></path>
	<path class="path2" d="M64 384h192v576h-192v-576z"></path>
	<path class="path3" d="M256 224c0 53.019-42.981 96-96 96s-96-42.981-96-96c0-53.019 42.981-96 96-96s96 42.981 96 96z"></path>
</symbol>
<symbol id="icon--direction" viewBox="0 0 1024 1024">
	<title>direction</title>
	<path class="path1" d="M575.584 96h-160v96h160v-96zM575.584 480v-64h-160v64h160zM415.584 960h160v-256h-160v256zM799.584 384l-69.984-80 69.984-80h-512l-83.2 80 83.2 80h512zM735.584 512h-512l70.016 80-70.016 80h512l84-80-84-80z"></path>
</symbol>
<symbol id="icon--tools" viewBox="0 0 1024 1024">
	<title>tools</title>
	<path class="path1" d="M889.056 253.952c30.688 74.016 16.064 162.368-44.128 222.56-66.272 66.272-166.432 76.64-244.288 32.704l-56.288 61.472 40.16 40.32 24-24c12.256-12.288 32.16-12.288 44.416 0l194.624 196.608c12.288 12.256 12.288 32.16 0 44.416l-88.832 88.832c-12.256 12.288-32.16 12.288-44.416 0l-194.624-196.608c-12.288-12.256-12.288-32.16 0-44.416l21.92-21.92-38.272-38.368-269.152 294.048c-24.544 24.544-64.32 24.544-88.832 0l-22.208-22.208c-24.544-24.544-24.544-64.32 0-88.832l306.624-256.8-203.648-204.192-64.32-0.032-74.432-119.68 59.904-60 122.4 74.912 0.8 62.976 206.016 206.816 59.936-50.176c-58.592-79.872-52.48-192.384 19.712-264.576 59.904-59.904 147.776-74.784 221.6-44.672l-131.968 130.144 111.072 111.072 132.224-130.4zM196.8 829.888c-12.256-12.256-32.128-12.256-44.416 0-12.288 12.288-12.288 32.16 0 44.448 12.288 12.256 32.16 12.256 44.416 0 12.288-12.32 12.288-32.192 0-44.448z"></path>
</symbol>
<symbol id="icon--ruler" viewBox="0 0 1024 1024">
	<title>ruler</title>
	<path class="path1" d="M193.856 218.72l21.952 21.952-89.856 89.856 70.016 70.016 90.272-90.272 20.512 20.512-90.272 90.304 69.12 69.088 205.312-205.312-249.984-248.512-204.576 204.576 67.648 67.68 89.856-89.888zM739.168 533.088l-205.312 205.344 69.088 69.088 90.304-90.272 20.512 20.512-90.272 90.272 70.016 70.016 89.824-89.856 21.952 21.952-89.824 89.856 67.616 67.648 204.608-204.608-248.512-249.952zM954.304 270.432c24.992-25.024 25.184-65.44 0.384-90.272l-112.384-112.352c-24.8-24.8-65.248-24.672-90.24 0.384l-69.44 69.44 202.24 202.24 69.44-69.44zM108.736 830.144l83.936 83.936 169.088-60.064-192.96-192.96-60.064 169.088zM660.8 158.176l-476.32 476.352 203.808 203.808 476.352-476.352-203.84-203.808zM277.024 634.112l383.392-383.392 22.336 22.336-383.424 383.424-22.304-22.368zM321.696 678.816l383.36-383.392 22.336 22.336-383.392 383.36-22.304-22.304zM366.368 723.456l383.392-383.392 22.304 22.336-383.36 383.392-22.336-22.336zM62.528 960.32l98.112-35.744-62.368-62.368-35.744 98.112z"></path>
</symbol>
</defs>
</svg>
