<?xml version="1.0" encoding="utf-8"?>
<!-- Generated by IcoMoon.io -->
<!DOCTYPE svg PUBLIC "-//W3C//DTD SVG 1.1//EN" "http://www.w3.org/Graphics/SVG/1.1/DTD/svg11.dtd">
<svg version="1.1" xmlns="http://www.w3.org/2000/svg" xmlns:xlink="http://www.w3.org/1999/xlink" width="20" height="20" viewBox="0 0 20 20">
<path fill="#444444" d="M3.786 4.272l0.429 0.429-1.755 1.755 1.368 1.368 1.763-1.763 0.401 0.401-1.763 1.764 1.35 1.349 4.010-4.010-4.883-4.854-3.996 3.996 1.321 1.322 1.755-1.756zM14.437 10.412l-4.010 4.011 1.349 1.349 1.764-1.763 0.401 0.401-1.763 1.763 1.367 1.367 1.754-1.755 0.429 0.429-1.754 1.755 1.321 1.321 3.996-3.996-4.854-4.882zM18.639 5.282c0.488-0.489 0.492-1.278 0.008-1.763l-2.195-2.194c-0.484-0.484-1.274-0.482-1.762 0.008l-1.356 1.356 3.95 3.95 1.356-1.356zM2.124 16.214l1.639 1.639 3.302-1.173-3.769-3.769-1.173 3.303zM12.906 3.089l-9.303 9.304 3.981 3.981 9.304-9.304-3.981-3.981zM5.411 12.385l7.488-7.488 0.436 0.436-7.489 7.489-0.436-0.437zM6.283 13.258l7.488-7.488 0.436 0.436-7.488 7.488-0.436-0.436zM7.156 14.13l7.488-7.488 0.436 0.436-7.487 7.488-0.436-0.436zM1.221 18.756l1.916-0.698-1.218-1.218-0.698 1.916z"></path>
</svg>
