<?xml version="1.0" encoding="utf-8"?>
<!-- Generated by IcoMoon.io -->
<!DOCTYPE svg PUBLIC "-//W3C//DTD SVG 1.1//EN" "http://www.w3.org/Graphics/SVG/1.1/DTD/svg11.dtd">
<svg version="1.1" xmlns="http://www.w3.org/2000/svg" xmlns:xlink="http://www.w3.org/1999/xlink" width="20" height="20" viewBox="0 0 20 20">
<path fill="#444444" d="M17.364 4.96c0.599 1.446 0.314 3.171-0.862 4.347-1.294 1.294-3.251 1.497-4.771 0.639l-1.099 1.201 0.784 0.787 0.469-0.469c0.239-0.24 0.628-0.24 0.867 0l3.801 3.84c0.24 0.239 0.24 0.628 0 0.867l-1.735 1.735c-0.239 0.24-0.628 0.24-0.867 0l-3.801-3.84c-0.24-0.239-0.24-0.628 0-0.867l0.428-0.428-0.748-0.749-5.257 5.743c-0.479 0.479-1.256 0.479-1.735 0l-0.434-0.434c-0.479-0.479-0.479-1.256 0-1.735l5.989-5.016-3.977-3.988-1.256-0.001-1.454-2.338 1.17-1.172 2.391 1.463 0.016 1.23 4.024 4.039 1.171-0.98c-1.144-1.56-1.025-3.758 0.385-5.168 1.17-1.17 2.886-1.461 4.328-0.872l-2.577 2.542 2.169 2.169 2.583-2.547zM3.844 16.209c-0.239-0.239-0.627-0.239-0.867 0s-0.24 0.628 0 0.868c0.24 0.239 0.628 0.239 0.867 0 0.24-0.241 0.24-0.629 0-0.868z"></path>
</svg>
